<svg width="541" height="657" xmlns="http://www.w3.org/2000/svg"><path d="M230.5 16.066c-49.846 7.633-94.527 26.928-131.347 56.722-13.496 10.92-34.631 31.593-36.65 35.848-3.828 8.066.598 17.695 8.741 19.016 7.893 1.281 10.29-.015 23.182-12.531 36.503-35.44 74.552-57.086 117.043-66.585 35.555-7.948 76.625-7.922 112.379.071 43.13 9.643 78.209 30.136 118.253 69.083l10.6 10.31h5.502c7.033 0 11.757-2.933 13.566-8.425 2.513-7.622 1.309-9.792-13.636-24.575-26.037-25.756-45.985-40.398-73.529-53.971-25.133-12.385-46.152-19.164-74.984-24.184-18.149-3.16-60.826-3.58-79.12-.779m24 62.522c-24.242 2.4-40.842 5.918-57.525 12.193-21.8 8.199-44.289 21.283-61.475 35.764-17.928 15.107-25.5 23.94-25.5 29.75 0 7.751 6.118 13.695 14.102 13.701 5.464.005 6.541-.708 21.829-14.449 19.227-17.281 36.619-28.486 56.569-36.443 24.505-9.775 40.907-12.565 69.479-11.819 27.488.719 46.086 5.043 69.648 16.193 18.174 8.601 29.668 16.689 49.873 35.094C402.952 169.003 404.52 170 409.484 170c10.371 0 16.468-9.977 11.934-19.531-3.228-6.803-29.885-30.361-46.769-41.332-15.189-9.87-37.197-19.426-55.5-24.099-18.545-4.735-50.133-7.886-64.649-6.45m-.258 65.413c-31.393 2.718-63.052 17.468-86.366 40.236-7.599 7.421-9.659 11.861-7.93 17.098 2.275 6.894 10.126 11.119 17.312 9.315 1.309-.328 5.948-3.783 10.311-7.677 23.795-21.242 45.929-30.663 74.431-31.68 32.171-1.148 59.076 8.687 83.344 30.467 8.296 7.446 11.426 9.232 16.183 9.236 8.999.009 15.516-9.211 12.152-17.193-1.81-4.297-14.949-16.758-25.494-24.18-27.003-19.006-61.546-28.427-93.943-25.622m9 70.012c-1.242.511-2.701 1.954-3.241 3.208-1.794 4.159-16.299 94.914-18.494 115.714-2.074 19.648-1.672 18.673-9.146 22.204-4.292 2.028-6.88 3.964-7.877 5.891-1.237 2.393-1.484 9.288-1.484 41.414v38.543l-4.25 3.111c-2.338 1.711-20.357 13.885-40.044 27.055-24.905 16.659-36.388 24.918-37.746 27.145-1.882 3.086-1.953 5.479-1.956 65.952L139 627h-17.599c-19.254 0-23.101.852-25.262 5.595-2.947 6.467.282 12.799 7.361 14.433 2.356.545 70.084.934 164.782.948 172.465.026 165.941.212 168.638-4.826 1.94-3.625 1.302-9.78-1.331-12.844l-2.412-2.806-19.338-.307-19.339-.307.279-63.031.279-63.032-3.792-3.662c-2.085-2.013-20.998-15.275-42.029-29.47L311 441.883v-78.73l-2.487-2.955c-1.367-1.625-4.928-3.946-7.912-5.157-6.751-2.74-7.158-3.707-8.631-20.541-1.104-12.608-2.055-19.016-11.502-77.5-6.184-38.289-6.466-39.689-8.319-41.359-2.252-2.028-6.186-2.748-8.907-1.628m6.719 116.274c1.161 11.983 1.843 22.221 1.516 22.75-.698 1.129-9.152 1.313-9.802.213-.244-.413.712-11.514 2.125-24.669 1.512-14.07 2.875-23.129 3.31-22 .407 1.055 1.69 11.723 2.851 23.706m18.492 45.874 2.547 1.16-.014 22.59c-.013 21.533-.399 27.089-1.882 27.089-.364 0-4.837-2.7-9.94-6-7.191-4.651-10.131-6-13.075-6-2.988 0-5.688 1.278-12.672 6-4.881 3.3-9.229 6-9.663 6s-.668-11.342-.521-25.205l.267-25.206 2.5-.695c4.405-1.224 39.666-1.003 42.453.267M321 473.301l53.5 36.199v117h-215V508.675l24.024-16.088c13.214-8.848 33.239-22.437 44.5-30.199 33.181-22.867 36.992-25.391 38.265-25.337.666.029 25.286 16.341 54.711 36.25m-62 31.634c-8.33 2.543-15.897 8.954-20.144 17.065-2.338 4.466-2.356 4.753-2.356 38v33.5l30.25.265 30.25.264v-32.477c0-30.752-.114-32.781-2.143-38.205-2.851-7.62-9.584-14.353-17.204-17.204-5.782-2.163-13.819-2.684-18.653-1.208" fill-rule="evenodd"/></svg>